<svg width="65" height="64" viewBox="0 0 65 64" fill="none" xmlns="http://www.w3.org/2000/svg">
<rect x="0.333374" width="64" height="64" rx="32" fill="#8E6CE4" fill-opacity="0.2"/>
<path d="M45.3067 40.001L34.6401 21.3343C34.4075 20.9239 34.0702 20.5825 33.6626 20.345C33.2551 20.1076 32.7918 19.9824 32.3201 19.9824C31.8484 19.9824 31.3851 20.1076 30.9775 20.345C30.5699 20.5825 30.2327 20.9239 30.0001 21.3343L19.3334 40.001C19.0983 40.4081 18.975 40.8702 18.9761 41.3403C18.9771 41.8104 19.1024 42.272 19.3393 42.6781C19.5762 43.0841 19.9163 43.4204 20.325 43.6527C20.7337 43.885 21.1966 44.0052 21.6667 44.001H43.0001C43.4679 44.0005 43.9274 43.8769 44.3324 43.6427C44.7374 43.4084 45.0737 43.0717 45.3074 42.6664C45.5411 42.2611 45.6641 41.8015 45.664 41.3336C45.6639 40.8657 45.5407 40.4061 45.3067 40.001Z" stroke="#8E6CE4" stroke-width="2.66667" stroke-linecap="round" stroke-linejoin="round"/>
<path d="M32.3334 28V33.3333" stroke="#8E6CE4" stroke-width="2.66667" stroke-linecap="round" stroke-linejoin="round"/>
<path d="M32.3334 38.666H32.3467" stroke="#8E6CE4" stroke-width="2.66667" stroke-linecap="round" stroke-linejoin="round"/>
</svg>
