<svg width="48" height="49" viewBox="0 0 48 49" fill="none" xmlns="http://www.w3.org/2000/svg">
<path d="M19.874 31.3755C19.6954 30.6834 19.3347 30.0517 18.8292 29.5463C18.3238 29.0408 17.6921 28.6801 17 28.5015L4.73 25.3375C4.52066 25.2781 4.33642 25.152 4.20523 24.9784C4.07403 24.8048 4.00305 24.5931 4.00305 24.3755C4.00305 24.1579 4.07403 23.9462 4.20523 23.7726C4.33642 23.599 4.52066 23.4729 4.73 23.4135L17 20.2475C17.6919 20.0691 18.3234 19.7086 18.8288 19.2036C19.3342 18.6985 19.6951 18.0673 19.874 17.3755L23.038 5.1055C23.0968 4.89534 23.2228 4.71018 23.3966 4.57829C23.5705 4.44639 23.7828 4.375 24.001 4.375C24.2192 4.375 24.4315 4.44639 24.6054 4.57829C24.7792 4.71018 24.9052 4.89534 24.964 5.1055L28.126 17.3755C28.3046 18.0676 28.6653 18.6993 29.1708 19.2047C29.6762 19.7102 30.3079 20.0709 31 20.2495L43.27 23.4115C43.481 23.4697 43.6671 23.5955 43.7997 23.7697C43.9323 23.9438 44.0041 24.1566 44.0041 24.3755C44.0041 24.5944 43.9323 24.8072 43.7997 24.9813C43.6671 25.1555 43.481 25.2813 43.27 25.3395L31 28.5015C30.3079 28.6801 29.6762 29.0408 29.1708 29.5463C28.6653 30.0517 28.3046 30.6834 28.126 31.3755L24.962 43.6455C24.9032 43.8557 24.7772 44.0408 24.6034 44.1727C24.4295 44.3046 24.2172 44.376 23.999 44.376C23.7808 44.376 23.5685 44.3046 23.3946 44.1727C23.2208 44.0408 23.0948 43.8557 23.036 43.6455L19.874 31.3755Z" stroke="#AA8AE5" stroke-width="4" stroke-linecap="round" stroke-linejoin="round"/>
<path d="M40 6.375V14.375" stroke="#AA8AE5" stroke-width="4" stroke-linecap="round" stroke-linejoin="round"/>
<path d="M44 10.375H36" stroke="#AA8AE5" stroke-width="4" stroke-linecap="round" stroke-linejoin="round"/>
<path d="M8 34.375V38.375" stroke="#AA8AE5" stroke-width="4" stroke-linecap="round" stroke-linejoin="round"/>
<path d="M10 36.375H6" stroke="#AA8AE5" stroke-width="4" stroke-linecap="round" stroke-linejoin="round"/>
</svg>
